<?xml version="1.0" encoding="UTF-8"?>
<svg id="Layer_2" data-name="Layer 2" xmlns="http://www.w3.org/2000/svg" viewBox="0 0 977 1080.5">
  <defs>
    <style>
      .cls-1 {
        letter-spacing: 1.54em;
      }

      .cls-2, .cls-3, .cls-4 {
        fill: none;
      }

      .cls-2, .cls-3, .cls-5, .cls-6, .cls-7, .cls-8 {
        stroke: #181818;
      }

      .cls-9 {
        letter-spacing: 1.39em;
      }

      .cls-10 {
        letter-spacing: .07em;
      }

      .cls-11 {
        letter-spacing: .06em;
      }

      .cls-12 {
        font-size: 13.99px;
      }

      .cls-12, .cls-13, .cls-14, .cls-15 {
        font-family: ArialMT, Arial;
        isolation: isolate;
      }

      .cls-3, .cls-6 {
        stroke-width: .5px;
      }

      .cls-4 {
        stroke: #000;
        stroke-miterlimit: 10;
      }

      .cls-16 {
        letter-spacing: -.04em;
      }

      .cls-17 {
        letter-spacing: .05em;
      }

      .cls-18 {
        letter-spacing: 1.5em;
      }

      .cls-19 {
        letter-spacing: .08em;
      }

      .cls-20 {
        letter-spacing: .08em;
      }

      .cls-21 {
        letter-spacing: 1.02em;
      }

      .cls-22 {
        letter-spacing: 0em;
      }

      .cls-23 {
        letter-spacing: .08em;
      }

      .cls-24 {
        letter-spacing: 1.05em;
      }

      .cls-25 {
        letter-spacing: .08em;
      }

      .cls-26 {
        letter-spacing: .07em;
      }

      .cls-27 {
        letter-spacing: .05em;
      }

      .cls-28 {
        letter-spacing: .78em;
      }

      .cls-29 {
        letter-spacing: .86em;
      }

      .cls-30 {
        letter-spacing: .07em;
      }

      .cls-31 {
        letter-spacing: 1.24em;
      }

      .cls-32 {
        letter-spacing: .06em;
      }

      .cls-33 {
        letter-spacing: .88em;
      }

      .cls-34 {
        font-family: MyriadPro-Regular, 'Myriad Pro';
        font-size: 15.99px;
      }

      .cls-5 {
        fill: #add1b2;
      }

      .cls-35 {
        letter-spacing: .08em;
      }

      .cls-36 {
        letter-spacing: .69em;
      }

      .cls-37 {
        letter-spacing: .88em;
      }

      .cls-38 {
        letter-spacing: .07em;
      }

      .cls-6 {
        fill: #f1f1f1;
      }

      .cls-39 {
        letter-spacing: .07em;
      }

      .cls-40 {
        letter-spacing: .61em;
      }

      .cls-41 {
        letter-spacing: .08em;
      }

      .cls-42 {
        letter-spacing: .03em;
      }

      .cls-43 {
        letter-spacing: .06em;
      }

      .cls-44 {
        letter-spacing: .06em;
      }

      .cls-45 {
        letter-spacing: .81em;
      }

      .cls-46 {
        letter-spacing: .07em;
      }

      .cls-47 {
        letter-spacing: .61em;
      }

      .cls-48 {
        stroke: #c82930;
      }

      .cls-49 {
        letter-spacing: .87em;
      }

      .cls-50 {
        letter-spacing: .89em;
      }

      .cls-51 {
        letter-spacing: .09em;
      }

      .cls-52 {
        letter-spacing: .11em;
      }

      .cls-53 {
        letter-spacing: .83em;
      }

      .cls-54 {
        letter-spacing: .06em;
      }

      .cls-55 {
        letter-spacing: .08em;
      }

      .cls-56 {
        letter-spacing: -.02em;
      }

      .cls-57 {
        letter-spacing: .68em;
      }

      .cls-58 {
        letter-spacing: .07em;
      }

      .cls-59 {
        letter-spacing: .81em;
      }

      .cls-60 {
        letter-spacing: .02em;
      }

      .cls-61 {
        letter-spacing: .02em;
      }

      .cls-62 {
        letter-spacing: .72em;
      }

      .cls-63 {
        letter-spacing: .05em;
      }

      .cls-64 {
        letter-spacing: .07em;
      }

      .cls-65 {
        letter-spacing: .08em;
      }

      .cls-66 {
        letter-spacing: .98em;
      }

      .cls-67 {
        letter-spacing: 1.11em;
      }

      .cls-68 {
        letter-spacing: .08em;
      }

      .cls-69 {
        letter-spacing: .69em;
      }

      .cls-70 {
        letter-spacing: .08em;
      }

      .cls-71 {
        letter-spacing: .71em;
      }

      .cls-13 {
        font-size: 12.99px;
      }

      .cls-72 {
        letter-spacing: .71em;
      }

      .cls-73 {
        letter-spacing: .96em;
      }

      .cls-74 {
        letter-spacing: .06em;
      }

      .cls-75 {
        letter-spacing: .07em;
      }

      .cls-76 {
        letter-spacing: .1em;
      }

      .cls-8 {
        fill: #eb937f;
      }

      .cls-77 {
        letter-spacing: .09em;
      }

      .cls-78 {
        letter-spacing: .78em;
      }

      .cls-79 {
        letter-spacing: .07em;
      }

      .cls-14 {
        font-size: 11.99px;
      }

      .cls-80 {
        letter-spacing: 1.54em;
      }

      .cls-81 {
        letter-spacing: .09em;
      }

      .cls-82 {
        letter-spacing: .08em;
      }

      .cls-83 {
        letter-spacing: -.04em;
      }

      .cls-15 {
        font-size: 10.97px;
      }
    </style>
  </defs>
  <g id="Layer_1-2" data-name="Layer 1">
    <g>
      <g id="elem_TInflow" data-name="elem TInflow">
        <path id="TInflow" class="cls-6" d="M212.25,197.39h132.61c2.13,0,3.85,1.12,3.85,2.5v75.56c0,1.38-1.72,2.5-3.85,2.5H212.25c-2.13,0-3.85-1.12-3.85-2.5v-75.56c0-1.38,1.72-2.5,3.85-2.5Z"/>
        <ellipse class="cls-8" cx="227.3" cy="213.38" rx="11" ry="10.99"/>
        <path d="M231.41,219.38h-7.72v-12.38h7.72v2.16h-5.27v2.67h4.77v2.16h-4.77v3.25h5.27v2.16Z"/>
        <text class="cls-12" transform="translate(263.49 225.69)"><tspan class="cls-54" x="0" y="0">TInflo</tspan><tspan x="40.26" y="0">w</tspan></text>
        <line class="cls-3" x1="209.4" y1="229.37" x2="348.72" y2="229.37"/>
        <text class="cls-12" transform="translate(214.4 246.36)"><tspan class="cls-41" x="0" y="0">deposi</tspan><tspan x="47.71" y="0">t</tspan></text>
        <text class="cls-12" transform="translate(214.4 262.65)"><tspan class="cls-51" x="0" y="0">investmen</tspan><tspan x="75.13" y="0">t</tspan></text>
        <line class="cls-3" x1="209.4" y1="269.95" x2="348.72" y2="269.95"/>
        <text class="cls-14" transform="translate(241.13 210.9)"><tspan class="cls-74" x="0" y="0">&lt;&lt;enumeration&gt;</tspan><tspan x="97.35" y="0">&gt;</tspan></text>
      </g>
      <g id="elem_TService" data-name="elem TService">
        <path id="TService" class="cls-6" d="M212.53,111.28h132.06c2.09,0,3.78,1.12,3.78,2.5v75.56c0,1.38-1.69,2.5-3.78,2.5H212.53c-2.09,0-3.78-1.12-3.78-2.5V113.78c0-1.38,1.69-2.5,3.78-2.5Z"/>
        <ellipse class="cls-8" cx="223.75" cy="127.27" rx="11" ry="10.99"/>
        <path d="M227.86,133.27h-7.72v-12.38h7.72v2.16h-5.27v2.67h4.77v2.16h-4.77v3.25h5.27v2.16Z"/>
        <text class="cls-12" transform="translate(257.16 138.82)"><tspan class="cls-17" x="0" y="0">TServic</tspan><tspan x="52.48" y="0">e</tspan></text>
        <line class="cls-3" x1="209.75" y1="143.26" x2="348.37" y2="143.26"/>
        <text class="cls-12" transform="translate(214.75 160.25)"><tspan class="cls-65" x="0" y="0">mastercar</tspan><tspan x="72.47" y="0">d</tspan></text>
        <text class="cls-12" transform="translate(214.75 176.54)"><tspan class="cls-19" x="0" y="0">vis</tspan><tspan x="20.25" y="0">a</tspan></text>
        <line class="cls-3" x1="209.75" y1="183.84" x2="348.37" y2="183.84"/>
        <text class="cls-14" transform="translate(239.51 124.79)"><tspan class="cls-74" x="0" y="0">&lt;&lt;enumeration&gt;</tspan><tspan x="97.35" y="0">&gt;</tspan></text>
      </g>
      <g id="elem_TTransaction" data-name="elem TTransaction">
        <path id="TTransaction" class="cls-6" d="M38.32,143.41H168.12c1.52,0,2.76,1.12,2.76,2.5v91.85c0,1.38-1.23,2.5-2.76,2.5H38.32c-1.52,0-2.76-1.12-2.76-2.5v-91.85c0-1.38,1.23-2.5,2.76-2.5Z"/>
        <ellipse class="cls-8" cx="50.56" cy="159.4" rx="11" ry="10.99"/>
        <path d="M54.67,165.4h-7.72v-12.38h7.72v2.16h-5.27v2.67h4.77v2.16h-4.77v3.25h5.27v2.16Z"/>
        <text class="cls-12" transform="translate(71.56 169.13)"><tspan class="cls-44" x="0" y="0">T</tspan><tspan class="cls-61" x="9.41" y="0">T</tspan><tspan class="cls-44" x="18.31" y="0">ransactio</tspan><tspan x="82.87" y="0">n</tspan></text>
        <line class="cls-3" x1="36.56" y1="175.4" x2="170.87" y2="175.4"/>
        <text class="cls-12" transform="translate(41.56 192.39)"><tspan class="cls-76" x="0" y="0">debi</tspan><tspan x="31.86" y="0">t</tspan></text>
        <text class="cls-12" transform="translate(41.56 208.67)"><tspan class="cls-77" x="0" y="0">credi</tspan><tspan x="36.43" y="0">t</tspan></text>
        <text class="cls-12" transform="translate(41.56 224.96)"><tspan class="cls-26" x="0" y="0">bank_accoun</tspan><tspan x="93.29" y="0">t</tspan></text>
        <line class="cls-3" x1="36.56" y1="232.26" x2="170.87" y2="232.26"/>
        <text class="cls-14" transform="translate(64.71 156.15)"><tspan class="cls-74" x="0" y="0">&lt;&lt;enumeration&gt;</tspan><tspan x="97.35" y="0">&gt;</tspan></text>
      </g>
      <g id="elem_TTransactionStatus" data-name="elem TTransactionStatus">
        <path id="TTransactionStatus" class="cls-6" d="M38.06,22.85H200.37c1.38,0,2.5,1.12,2.5,2.5v108.14c0,1.38-1.12,2.5-2.5,2.5H38.06c-1.38,0-2.5-1.12-2.5-2.5V25.35c0-1.38,1.12-2.5,2.5-2.5Z"/>
        <ellipse class="cls-8" cx="50.56" cy="38.84" rx="11" ry="10.99"/>
        <path d="M54.67,44.84h-7.72v-12.38h7.72v2.16h-5.27v2.67h4.77v2.16h-4.77v3.25h5.27v2.16Z"/>
        <text class="cls-12" transform="translate(65.3 49.12)"><tspan class="cls-43" x="0" y="0">T</tspan><tspan class="cls-60" x="9.4" y="0">T</tspan><tspan class="cls-43" x="18.27" y="0">ransactionStatu</tspan><tspan x="128.25" y="0">s</tspan></text>
        <line class="cls-3" x1="36.56" y1="54.84" x2="201.87" y2="54.84"/>
        <text class="cls-12" transform="translate(41.56 71.82)"><tspan class="cls-82" x="0" y="0">faile</tspan><tspan x="30.99" y="0">d</tspan></text>
        <text class="cls-12" transform="translate(41.56 88.11)"><tspan class="cls-68" x="0" y="0">pendin</tspan><tspan x="49.1" y="0">g</tspan></text>
        <text class="cls-12" transform="translate(41.56 104.4)"><tspan class="cls-81" x="0" y="0">complete</tspan><tspan x="66.46" y="0">d</tspan></text>
        <text class="cls-12" transform="translate(41.56 120.69)"><tspan class="cls-58" x="0" y="0">cancelle</tspan><tspan x="58.93" y="0">d</tspan></text>
        <line class="cls-3" x1="36.56" y1="127.99" x2="201.87" y2="127.99"/>
        <text class="cls-14" transform="translate(74.41 36.14)"><tspan class="cls-74" x="0" y="0">&lt;&lt;enumeration&gt;</tspan><tspan x="97.35" y="0">&gt;</tspan></text>
      </g>
      <g id="elem_TOutflow" data-name="elem TOutflow">
        <path id="TOutflow" class="cls-6" d="M212.47,23.58h133.43c2.05,0,3.72,1.12,3.72,2.5V101.64c0,1.38-1.66,2.5-3.72,2.5H212.47c-2.05,0-3.72-1.12-3.72-2.5V26.08c0-1.38,1.66-2.5,3.72-2.5Z"/>
        <ellipse class="cls-8" cx="223.75" cy="39.58" rx="11" ry="10.99"/>
        <path d="M227.86,45.57h-7.72v-12.38h7.72v2.16h-5.27v2.67h4.77v2.16h-4.77v3.25h5.27v2.16Z"/>
        <text class="cls-12" transform="translate(253.64 52.65)"><tspan class="cls-27" x="0" y="0">T</tspan><tspan class="cls-30" x="9.3" y="0">Outflo</tspan><tspan x="52.63" y="0">w</tspan></text>
        <line class="cls-3" x1="209.75" y1="55.57" x2="349.61" y2="55.57"/>
        <text class="cls-12" transform="translate(214.75 72.56)"><tspan class="cls-70" x="0" y="0">extractio</tspan><tspan x="63.42" y="0">n</tspan></text>
        <text class="cls-12" transform="translate(214.75 88.85)"><tspan class="cls-55" x="0" y="0">transfe</tspan><tspan x="50.6" y="0">r</tspan></text>
        <line class="cls-3" x1="209.75" y1="96.14" x2="349.61" y2="96.14"/>
        <text class="cls-14" transform="translate(240.75 37.09)"><tspan class="cls-74" x="0" y="0">&lt;&lt;enumeration&gt;</tspan><tspan x="97.35" y="0">&gt;</tspan></text>
      </g>
      <g id="elem_User" data-name="elem User">
        <path id="User" class="cls-6" d="M656.37,48.09h193.79c1.38,0,2.5,1.12,2.5,2.5V207.6c0,1.38-1.12,2.5-2.5,2.5h-193.79c-1.38,0-2.5-1.12-2.5-2.5V50.59c0-1.38,1.12-2.5,2.5-2.5Z"/>
        <ellipse class="cls-5" cx="733.07" cy="64.09" rx="11" ry="10.99"/>
        <path d="M736.03,69.73c-.39,.2-.79,.34-1.22,.44-.43,.1-.88,.16-1.34,.16-1.67,0-2.94-.55-3.83-1.64-.88-1.1-1.31-2.7-1.31-4.78s.44-3.68,1.31-4.78c.89-1.1,2.16-1.66,3.83-1.66,.47,0,.92,.05,1.34,.16,.44,.1,.84,.26,1.22,.45v2.72c-.42-.39-.82-.67-1.22-.84-.4-.19-.8-.28-1.22-.28-.9,0-1.57,.36-2.03,1.08-.46,.71-.69,1.76-.69,3.15s.23,2.45,.69,3.17c.46,.71,1.14,1.06,2.03,1.06,.42,0,.82-.09,1.22-.27,.4-.19,.8-.47,1.22-.86v2.72Z"/>
        <text class="cls-12" transform="translate(753.57 68.93)"><tspan class="cls-11" x="0" y="0">Use</tspan><tspan x="27.24" y="0">r</tspan></text>
        <line class="cls-3" x1="654.87" y1="80.08" x2="851.67" y2="80.08"/>
        <rect class="cls-48" x="661.87" y="90.72" width="6" height="6"/>
        <text class="cls-12" transform="translate(673.88 97.07)"><tspan x="0" y="0">name:</tspan><tspan class="cls-45" x="38.89" y="0"> </tspan><tspan x="54.05" y="0">String</tspan></text>
        <rect class="cls-48" x="661.87" y="107.01" width="6" height="6"/>
        <text class="cls-12" transform="translate(673.88 113.36)"><tspan x="0" y="0">surname:</tspan><tspan class="cls-66" x="58.33" y="0"> </tspan><tspan x="75.97" y="0">String</tspan></text>
        <rect class="cls-48" x="661.87" y="123.3" width="6" height="6"/>
        <text class="cls-12" transform="translate(673.88 129.65)"><tspan x="0" y="0">dni:</tspan><tspan class="cls-57" x="22.56" y="0"> </tspan><tspan x="36.01" y="0">String</tspan></text>
        <rect class="cls-48" x="661.87" y="139.59" width="6" height="6"/>
        <text class="cls-12" transform="translate(673.88 145.94)"><tspan x="0" y="0">address:</tspan><tspan class="cls-29" x="53.67" y="0"> </tspan><tspan x="69.65" y="0">String</tspan></text>
        <rect class="cls-48" x="661.87" y="155.88" width="6" height="6"/>
        <text class="cls-12" transform="translate(673.88 162.23)"><tspan x="0" y="0">mail:</tspan><tspan class="cls-28" x="29.54" y="0"> </tspan><tspan x="44.35" y="0">String</tspan></text>
        <rect class="cls-48" x="661.87" y="172.17" width="6" height="6"/>
        <text class="cls-12" transform="translate(673.88 178.51)"><tspan x="0" y="0">date_of_birth:</tspan><tspan class="cls-67" x="85.58" y="0"> </tspan><tspan x="104.97" y="0">Date</tspan></text>
        <rect class="cls-48" x="661.87" y="188.46" width="6" height="6"/>
        <text class="cls-12" transform="translate(673.88 194.8)"><tspan x="0" y="0">registration_code:</tspan><tspan class="cls-18" x="111.24" y="0"> </tspan><tspan x="136.16" y="0">String</tspan></text>
        <line class="cls-3" x1="654.87" y1="202.1" x2="851.67" y2="202.1"/>
      </g>
      <g id="elem_Account" data-name="elem Account">
        <path id="Account" class="cls-6" d="M518.87,286.98h138.66c1.38,0,2.5,1.12,2.5,2.5v157c0,1.38-1.12,2.5-2.5,2.5h-138.66c-1.38,0-2.5-1.12-2.5-2.5v-157.01c0-1.38,1.12-2.5,2.5-2.5Z"/>
        <ellipse class="cls-5" cx="556.07" cy="302.98" rx="11" ry="10.99"/>
        <path d="M559.04,308.61c-.39,.2-.79,.34-1.22,.44-.43,.1-.88,.16-1.34,.16-1.67,0-2.94-.55-3.83-1.64-.88-1.1-1.31-2.7-1.31-4.78s.44-3.68,1.31-4.78c.89-1.1,2.16-1.66,3.83-1.66,.47,0,.92,.05,1.34,.16,.44,.1,.84,.26,1.22,.45v2.72c-.42-.39-.82-.67-1.22-.84-.4-.19-.8-.28-1.22-.28-.9,0-1.57,.36-2.03,1.08-.46,.71-.69,1.76-.69,3.15s.23,2.45,.69,3.17c.46,.71,1.14,1.06,2.03,1.06,.42,0,.82-.09,1.22-.27,.4-.19,.8-.47,1.22-.86v2.72Z"/>
        <text class="cls-12" transform="translate(575.54 307.82)"><tspan class="cls-38" x="0" y="0">Accoun</tspan><tspan x="52.86" y="0">t</tspan></text>
        <line class="cls-3" x1="517.37" y1="318.97" x2="659.03" y2="318.97"/>
        <rect class="cls-48" x="524.37" y="329.61" width="6" height="6"/>
        <text class="cls-12" transform="translate(536.38 335.96)"><tspan x="0" y="0">security:</tspan><tspan class="cls-21" x="52.1" y="0"> </tspan><tspan x="70.24" y="0">String</tspan></text>
        <rect class="cls-48" x="524.37" y="345.9" width="6" height="6"/>
        <text class="cls-12" transform="translate(536.38 352.25)"><tspan x="0" y="0">password:</tspan><tspan class="cls-73" x="63.78" y="0"> </tspan><tspan x="81.05" y="0">String</tspan></text>
        <rect class="cls-48" x="524.37" y="362.19" width="6" height="6"/>
        <text class="cls-12" transform="translate(536.38 368.54)"><tspan x="0" y="0">balance:</tspan><tspan class="cls-78" x="52.91" y="0"> </tspan><tspan x="67.71" y="0">Float</tspan></text>
        <rect class="cls-48" x="524.37" y="378.48" width="6" height="6"/>
        <text class="cls-12" transform="translate(536.38 384.83)"><tspan x="0" y="0">coin:</tspan><tspan class="cls-72" x="29.56" y="0"> </tspan><tspan x="43.38" y="0">String</tspan></text>
        <rect class="cls-48" x="524.37" y="394.77" width="6" height="6"/>
        <text class="cls-12" transform="translate(536.38 401.11)"><tspan x="0" y="0">status:</tspan><tspan class="cls-33" x="41.22" y="0"> </tspan><tspan x="57.37" y="0">String</tspan></text>
        <rect class="cls-48" x="524.37" y="411.06" width="6" height="6"/>
        <text class="cls-12" transform="translate(536.38 417.4)"><tspan x="0" y="0">cvu:</tspan><tspan class="cls-69" x="25.66" y="0"> </tspan><tspan x="39.21" y="0">String</tspan></text>
        <rect class="cls-48" x="524.37" y="427.35" width="6" height="6"/>
        <text class="cls-12" transform="translate(536.38 433.69)"><tspan x="0" y="0">alias:</tspan><tspan class="cls-62" x="32.67" y="0"> </tspan><tspan x="46.59" y="0">String</tspan></text>
        <line class="cls-3" x1="517.37" y1="440.99" x2="659.03" y2="440.99"/>
      </g>
      <g id="elem_Card" data-name="elem Card">
        <path id="Card" class="cls-6" d="M169.98,477.4h199.95c1.38,0,2.5,1.12,2.5,2.5v108.14c0,1.38-1.12,2.5-2.5,2.5H169.98c-1.38,0-2.5-1.12-2.5-2.5v-108.14c0-1.38,1.12-2.5,2.5-2.5Z"/>
        <ellipse class="cls-5" cx="249.21" cy="493.4" rx="11" ry="10.99"/>
        <path d="M252.18,499.03c-.39,.2-.79,.34-1.22,.44-.43,.1-.88,.16-1.34,.16-1.67,0-2.94-.55-3.83-1.64-.88-1.1-1.31-2.7-1.31-4.78s.44-3.68,1.31-4.78c.89-1.1,2.16-1.66,3.83-1.66,.47,0,.92,.05,1.34,.16,.44,.1,.84,.26,1.22,.45v2.72c-.42-.39-.82-.67-1.22-.84-.4-.19-.8-.28-1.22-.28-.9,0-1.57,.36-2.03,1.08-.46,.71-.69,1.76-.69,3.15,0,1.4,.23,2.45,.69,3.17,.46,.71,1.14,1.06,2.03,1.06,.42,0,.82-.09,1.22-.27,.4-.19,.8-.47,1.22-.86v2.72Z"/>
        <text class="cls-12" transform="translate(269.71 498.24)"><tspan class="cls-32" x="0" y="0">Car</tspan><tspan x="25.2" y="0">d</tspan></text>
        <line class="cls-3" x1="168.48" y1="509.39" x2="371.43" y2="509.39"/>
        <rect class="cls-48" x="175.48" y="520.03" width="6" height="6"/>
        <text class="cls-12" transform="translate(187.48 526.38)"><tspan x="0" y="0">responsible_name:</tspan><tspan class="cls-9" x="118.24" y="0"> </tspan><tspan x="141.58" y="0">String</tspan></text>
        <rect class="cls-48" x="175.48" y="536.32" width="6" height="6"/>
        <text class="cls-12" transform="translate(187.48 542.67)"><tspan x="0" y="0">expire_date:</tspan><tspan class="cls-24" x="77.02" y="0"> </tspan><tspan x="95.62" y="0">Date</tspan></text>
        <rect class="cls-48" x="175.48" y="552.61" width="6" height="6"/>
        <text class="cls-12" transform="translate(187.48 558.96)"><tspan x="0" y="0">service:</tspan><tspan class="cls-37" x="48.21" y="0"> </tspan><tspan x="64.34" y="0">TService</tspan></text>
        <rect class="cls-48" x="175.48" y="568.9" width="6" height="6"/>
        <text class="cls-12" transform="translate(187.48 575.24)"><tspan x="0" y="0">transaction:</tspan><tspan class="cls-1" x="72.34" y="0"> </tspan><tspan x="97.73" y="0">T</tspan><tspan class="cls-83" x="106.28" y="0">T</tspan><tspan x="114.31" y="0">ransaction</tspan></text>
        <line class="cls-3" x1="168.48" y1="582.54" x2="371.43" y2="582.54"/>
      </g>
      <g id="elem_Transaction" data-name="elem Transaction">
        <path id="Transaction" class="cls-6" d="M484.37,741.59h208.5c1.38,0,2.5,1.12,2.5,2.5v157c0,1.38-1.12,2.5-2.5,2.5h-208.5c-1.38,0-2.5-1.12-2.5-2.5v-157c0-1.38,1.12-2.5,2.5-2.5Z"/>
        <ellipse class="cls-5" cx="543.3" cy="757.58" rx="11" ry="10.99"/>
        <path d="M546.27,763.22c-.39,.2-.79,.34-1.22,.44-.43,.1-.87,.16-1.34,.16-1.67,0-2.94-.55-3.83-1.64-.88-1.1-1.31-2.7-1.31-4.78s.44-3.68,1.31-4.78c.89-1.1,2.16-1.66,3.83-1.66,.47,0,.92,.05,1.34,.16,.44,.1,.84,.26,1.22,.45v2.72c-.42-.39-.82-.67-1.22-.84-.4-.19-.8-.28-1.22-.28-.9,0-1.57,.36-2.03,1.08-.46,.71-.69,1.76-.69,3.15s.23,2.45,.69,3.17c.46,.71,1.14,1.06,2.03,1.06,.42,0,.82-.09,1.22-.27,.4-.19,.8-.47,1.22-.86v2.72Z"/>
        <text class="cls-12" transform="translate(563.8 762.43)"><tspan class="cls-42" x="0" y="0">T</tspan><tspan class="cls-39" x="8.98" y="0">ransactio</tspan><tspan x="74.33" y="0">n</tspan></text>
        <line class="cls-3" x1="482.87" y1="773.57" x2="694.37" y2="773.57"/>
        <rect class="cls-48" x="489.87" y="784.22" width="6" height="6"/>
        <text class="cls-12" transform="translate(501.87 790.56)"><tspan x="0" y="0">id:</tspan><tspan class="cls-40" x="14.78" y="0"> </tspan><tspan x="27.14" y="0">String</tspan></text>
        <rect class="cls-48" x="489.87" y="800.51" width="6" height="6"/>
        <text class="cls-12" transform="translate(501.87 806.85)"><tspan x="0" y="0">source:</tspan><tspan class="cls-59" x="45.89" y="0"> </tspan><tspan x="61.15" y="0">String</tspan></text>
        <rect class="cls-48" x="489.87" y="816.8" width="6" height="6"/>
        <text class="cls-12" transform="translate(501.87 823.14)"><tspan x="0" y="0">destination:</tspan><tspan class="cls-31" x="71.57" y="0"> </tspan><tspan x="92.78" y="0">String</tspan></text>
        <rect class="cls-48" x="489.87" y="833.09" width="6" height="6"/>
        <text class="cls-12" transform="translate(501.87 839.43)"><tspan x="0" y="0">date:</tspan><tspan class="cls-36" x="31.12" y="0"> </tspan><tspan class="cls-22" x="44.6" y="0">Date</tspan></text>
        <rect class="cls-48" x="489.87" y="849.38" width="6" height="6"/>
        <text class="cls-12" transform="translate(501.87 855.72)"><tspan x="0" y="0">detail:</tspan><tspan class="cls-50" x="37.34" y="0"> </tspan><tspan x="53.7" y="0">String</tspan></text>
        <rect class="cls-48" x="489.87" y="865.66" width="6" height="6"/>
        <text class="cls-12" transform="translate(501.87 872.01)"><tspan x="0" y="0">amount:</tspan><tspan class="cls-49" x="50.56" y="0"> </tspan><tspan class="cls-22" x="66.61" y="0">Float</tspan></text>
        <rect class="cls-48" x="489.87" y="881.95" width="6" height="6"/>
        <text class="cls-12" transform="translate(501.87 888.3)"><tspan x="0" y="0">status:</tspan><tspan class="cls-80" x="41.22" y="0"> </tspan><tspan class="cls-22" x="66.6" y="0">T</tspan><tspan class="cls-16" x="75.15" y="0">T</tspan><tspan x="83.18" y="0">ransactionStatus</tspan></text>
        <line class="cls-3" x1="482.87" y1="895.6" x2="694.37" y2="895.6"/>
      </g>
      <g id="elem_Outflow" data-name="elem Outflow">
        <path id="Outflow" class="cls-6" d="M463.71,964.14h127.33c1.38,0,2.5,1.12,2.5,2.5v59.27c0,1.38-1.12,2.5-2.5,2.5h-127.33c-1.38,0-2.5-1.12-2.5-2.5v-59.27c0-1.38,1.12-2.5,2.5-2.5Z"/>
        <ellipse class="cls-5" cx="496.96" cy="980.13" rx="11" ry="10.99"/>
        <path d="M499.93,985.77c-.39,.2-.79,.34-1.22,.44-.43,.1-.87,.16-1.34,.16-1.67,0-2.94-.55-3.83-1.64-.88-1.1-1.31-2.7-1.31-4.78s.44-3.68,1.31-4.78c.89-1.1,2.16-1.66,3.83-1.66,.47,0,.92,.05,1.34,.16,.44,.1,.84,.26,1.22,.45v2.72c-.42-.39-.82-.67-1.22-.84-.4-.19-.8-.28-1.22-.28-.9,0-1.57,.36-2.03,1.08-.46,.71-.69,1.76-.69,3.15s.23,2.45,.69,3.17c.46,.71,1.14,1.06,2.03,1.06,.42,0,.82-.09,1.22-.27,.4-.19,.8-.47,1.22-.86v2.72Z"/>
        <text class="cls-12" transform="translate(515.57 984.97)"><tspan class="cls-25" x="0" y="0">Outflo</tspan><tspan x="44.08" y="0">w</tspan></text>
        <line class="cls-3" x1="462.21" y1="996.12" x2="592.54" y2="996.12"/>
        <rect class="cls-48" x="469.21" y="1006.76" width="6" height="6"/>
        <text class="cls-12" transform="translate(481.21 1013.11)"><tspan x="0" y="0">type:</tspan><tspan class="cls-53" x="30.34" y="0"> </tspan><tspan class="cls-56" x="45.89" y="0">T</tspan><tspan x="54.18" y="0">OutFlow</tspan></text>
        <line class="cls-3" x1="462.21" y1="1020.41" x2="592.54" y2="1020.41"/>
      </g>
      <g id="elem_Inflow" data-name="elem Inflow">
        <path id="Inflow" class="cls-6" d="M632.03,963.99h114.95c1.38,0,2.5,1.12,2.5,2.5v59.27c0,1.38-1.12,2.5-2.5,2.5h-114.96c-1.38,0-2.5-1.12-2.5-2.5v-59.27c0-1.38,1.12-2.5,2.5-2.5Z"/>
        <ellipse class="cls-5" cx="665.28" cy="979.98" rx="11" ry="10.99"/>
        <path d="M668.25,985.62c-.39,.2-.79,.34-1.22,.44-.43,.1-.87,.16-1.34,.16-1.67,0-2.94-.55-3.83-1.64-.88-1.1-1.31-2.7-1.31-4.78s.44-3.68,1.31-4.78c.89-1.1,2.16-1.66,3.83-1.66,.47,0,.92,.05,1.34,.16,.44,.1,.84,.26,1.22,.45v2.72c-.42-.39-.82-.67-1.22-.84-.4-.19-.8-.28-1.22-.28-.9,0-1.57,.36-2.03,1.08-.46,.71-.69,1.76-.69,3.15s.23,2.45,.69,3.17c.46,.71,1.14,1.06,2.03,1.06,.42,0,.82-.09,1.22-.27,.4-.19,.8-.47,1.22-.86v2.72Z"/>
        <text class="cls-12" transform="translate(683.89 984.83)"><tspan class="cls-20" x="0" y="0">Inflo</tspan><tspan x="31.71" y="0">w</tspan></text>
        <line class="cls-3" x1="630.53" y1="995.97" x2="748.48" y2="995.97"/>
        <rect class="cls-48" x="637.53" y="1006.62" width="6" height="6"/>
        <text class="cls-12" transform="translate(649.53 1012.96)"><tspan x="0" y="0">type:</tspan><tspan class="cls-71" x="30.34" y="0"> </tspan><tspan x="44.15" y="0">TInFlow</tspan></text>
        <line class="cls-3" x1="630.53" y1="1020.26" x2="748.48" y2="1020.26"/>
      </g>
      <g id="elem_Financial_Entity" data-name="elem Financial Entity">
        <path id="Financial_Entity" data-name="Financial Entity" class="cls-6" d="M744.87,478.9h137.2c1.38,0,2.5,1.12,2.5,2.5v91.85c0,1.38-1.12,2.5-2.5,2.5h-137.2c-1.38,0-2.5-1.12-2.5-2.5v-91.85c0-1.38,1.12-2.5,2.5-2.5Z"/>
        <ellipse class="cls-5" cx="757.37" cy="494.89" rx="11" ry="10.99"/>
        <path d="M760.34,500.53c-.39,.2-.79,.34-1.22,.44-.43,.1-.88,.16-1.34,.16-1.67,0-2.94-.55-3.83-1.64-.88-1.1-1.31-2.7-1.31-4.78s.44-3.68,1.31-4.78c.89-1.1,2.16-1.66,3.83-1.66,.47,0,.92,.05,1.34,.16,.44,.1,.84,.26,1.22,.45v2.72c-.42-.39-.82-.67-1.22-.84-.4-.19-.8-.28-1.22-.28-.9,0-1.57,.36-2.03,1.08-.46,.71-.69,1.76-.69,3.15s.23,2.45,.69,3.17c.46,.71,1.14,1.06,2.03,1.06,.42,0,.82-.09,1.22-.27,.4-.19,.8-.47,1.22-.86v2.72Z"/>
        <text class="cls-12" transform="translate(771.38 499.73)"><tspan class="cls-63" x="0" y="0">Financial_Entit</tspan><tspan x="103.15" y="0">y</tspan></text>
        <line class="cls-3" x1="743.37" y1="510.88" x2="883.57" y2="510.88"/>
        <rect class="cls-48" x="750.37" y="521.52" width="6" height="6"/>
        <text class="cls-12" transform="translate(762.38 527.87)"><tspan x="0" y="0">id:</tspan><tspan class="cls-47" x="14.78" y="0"> </tspan><tspan x="27.14" y="0">String</tspan></text>
        <rect class="cls-48" x="750.37" y="537.81" width="6" height="6"/>
        <text class="cls-12" transform="translate(762.38 544.16)"><tspan x="0" y="0">name:</tspan><tspan class="cls-45" x="38.89" y="0"> </tspan><tspan x="54.05" y="0">String</tspan></text>
        <rect class="cls-48" x="750.37" y="554.1" width="6" height="6"/>
        <text class="cls-12" transform="translate(762.38 560.45)"><tspan x="0" y="0">address:</tspan><tspan class="cls-29" x="53.67" y="0"> </tspan><tspan x="69.65" y="0">String</tspan></text>
        <line class="cls-3" x1="743.37" y1="567.74" x2="883.57" y2="567.74"/>
      </g>
      <g id="link_Transaction_Outflow" data-name="link Transaction Outflow">
        <path id="Transaction-backto-Outflow" class="cls-7" d="M527.54,921.72v42.63"/>
        <polygon class="cls-7" points="527.54 903.72 521.54 921.72 533.54 921.72 527.54 903.72"/>
      </g>
      <g id="link_Transaction_Inflow" data-name="link Transaction Inflow">
        <path id="Transaction-backto-Inflow" class="cls-7" d="M637.13,915.39c25.3,21.53,37.47,31.9,57.52,48.96"/>
        <polygon class="cls-7" points="623.42 903.72 633.24 919.95 641.01 910.82 623.42 903.72"/>
      </g>
      <g id="link_User_Account" data-name="link User Account">
        <path id="User-Account" class="cls-7" d="M697.51,210.26c-17.2,24.7-36.14,51.88-53.34,76.57"/>
        <text class="cls-13" transform="translate(674.12 264.22)"><tspan class="cls-23" x="0" y="0">ha</tspan><tspan x="16.47" y="0">s</tspan></text>
        <text class="cls-13" transform="translate(674.12 228.17)"><tspan x="0" y="0">1</tspan></text>
        <text class="cls-13" transform="translate(642.91 276.01)"><tspan x="0" y="0">*</tspan></text>
      </g>
      <g id="link_User_Financial_Entity" data-name="link User Financial Entity">
        <path id="User-Financial_Entity" data-name="User-Financial Entity" class="cls-7" d="M765.51,210.26c12.19,80.52,30.57,201.9,40.63,268.39"/>
        <text class="cls-13" transform="translate(788.52 329.24)"><tspan class="cls-35" x="0" y="0">pay</tspan><tspan x="24.17" y="0">s</tspan></text>
        <text class="cls-13" transform="translate(772.52 228.32)"><tspan x="0" y="0">1</tspan></text>
        <text class="cls-13" transform="translate(806.61 469.15)"><tspan x="0" y="0">1</tspan></text>
      </g>
      <g id="link_Account_Transaction" data-name="link Account Transaction">
        <path id="Account-Transaction" class="cls-2" d="M528.84,448.99c-45.07,59.8-94.25,149.42-62.47,227.61,9.4,23.14,25.77,45.35,43.52,64.76"/>
        <text class="cls-15" transform="translate(461.37 632.78) scale(1.19 1)"><tspan class="cls-64" x="0" y="0">participate</tspan><tspan x="59.57" y="0">s</tspan></text>
        <text class="cls-15" transform="translate(511.08 461.38) scale(1.19 1)"><tspan x="0" y="0">1</tspan></text>
        <text class="cls-15" transform="translate(504.37 735.14) scale(1.19 1)"><tspan x="0" y="0">*</tspan></text>
      </g>
      <g id="link_Transaction_Account" data-name="link Transaction Account">
        <path id="Transaction-Account" class="cls-7" d="M588.37,741.54V448.99"/>
        <text class="cls-13" transform="translate(593.68 633.32)"><tspan class="cls-10" x="0" y="0">sourc</tspan><tspan x="36.21" y="0">e</tspan></text>
        <text class="cls-13" transform="translate(577.96 730.62)"><tspan x="0" y="0">1</tspan></text>
        <text class="cls-13" transform="translate(577.26 467.82)"><tspan x="0" y="0">1</tspan></text>
      </g>
      <g id="link_Transaction_Account-2" data-name="link Transaction Account">
        <path id="Transaction-Account-1" class="cls-2" d="M650.43,741.46c8.35-20.46,16.14-43.21,20.34-64.76,15.19-77.98-6.53-167.78-26.57-227.65"/>
        <text class="cls-13" transform="translate(661.23 734.35)"><tspan x="0" y="0">1</tspan></text>
        <text class="cls-13" transform="translate(654.9 468.41)"><tspan x="0" y="0">1</tspan></text>
        <text class="cls-15" transform="translate(679.26 632.78) scale(1.19 1)"><tspan class="cls-52" x="0" y="0">destinatio</tspan><tspan x="58.96" y="0">n</tspan></text>
      </g>
      <g id="link_Financial_Entity_Inflow" data-name="link Financial Entity Inflow">
        <text class="cls-13" transform="translate(821.16 770.44)"><tspan class="cls-46" x="0" y="0">load</tspan><tspan x="28.04" y="0">s</tspan></text>
        <text class="cls-13" transform="translate(802.46 592.41)"><tspan x="0" y="0">1</tspan></text>
        <text class="cls-13" transform="translate(785.46 1004.2)"><tspan x="0" y="0">*</tspan></text>
      </g>
      <path class="cls-2" d="M515.21,362.19h-238.75c-5.25,0-9.51,4.25-9.51,9.5v106.36"/>
      <text class="cls-13" transform="translate(352.07 358.65)"><tspan class="cls-79" x="0" y="0">contain</tspan><tspan x="48.51" y="0">s</tspan></text>
      <text class="cls-34" transform="translate(241.28 469.41)"><tspan x="0" y="0">1..*</tspan></text>
      <text class="cls-34" transform="translate(499.18 358.79)"><tspan x="0" y="0">1</tspan></text>
      <text class="cls-13" transform="translate(292.11 826.61)"><tspan class="cls-75" x="0" y="0">produce</tspan><tspan x="53.44" y="0">s</tspan></text>
      <path class="cls-2" d="M268.12,590.54v235.51c0,5.4,4.44,9.77,9.91,9.77h203.85"/>
      <text class="cls-34" transform="translate(242.95 611.23)"><tspan x="0" y="0">1..*</tspan></text>
      <text class="cls-34" transform="translate(456.25 829.41)"><tspan x="0" y="0">1..*</tspan></text>
      <path class="cls-2" d="M749.48,1007.42h61.68c2.4,0,4.35-1.95,4.35-4.35v-428.18"/>
      <rect class="cls-4" x=".5" y=".5" width="976" height="1079.5"/>
    </g>
  </g>
</svg>